# xmcd CD database file
#
# Track frame offsets:
#	150
#	21092
#	36477
#	53592
#	73211
#	90422
#	103082
#	119752
#	140444
#	155710
#	172646
#	188849
#	234188
#	257325
#	275687
#	296916
#	316927
#
# Disc length: 4488 seconds
#
# Revision: 0
# Processed by: cddbd v1.5.2PL0 Copyright (c) Steve Scherf et al.
# Submitted via: CDex 1.51
#
DISCID=f1118611
DTITLE=Zac Brown Band - You Get What You Give (Deluxe Version)
DYEAR=2010
DGENRE=Country
TTITLE0=Let It Go
TTITLE1=Knee Deep (feat.Jimmy Buffett)
TTITLE2=No Hurry
TTITLE3=I Play the Road
TTITLE4=Cold Hearted
TTITLE5=Whiskey's Gone
TTITLE6=Quiet Your Mind
TTITLE7=Colder Weather
TTITLE8=Settle Me Down
TTITLE9=As She's Walking Away (feat.Alan Jackson)
TTITLE10=Keep Me In Mind
TTITLE11=Who Knows
TTITLE12=Martin
TTITLE13=Make This Day
TTITLE14=Oh My Sweet Carolina (Live)[Bonus Track]
TTITLE15=Nothing (BonusTrack)
TTITLE16=Every Little Bit (Live)[Bonus Track]
EXTD=YEAR: 2010
EXTT0=
EXTT1=
EXTT2=
EXTT3=
EXTT4=
EXTT5=
EXTT6=
EXTT7=
EXTT8=
EXTT9=
EXTT10=
EXTT11=
EXTT12=
EXTT13=
EXTT14=
EXTT15=
EXTT16=
PLAYORDER=
